<svg xmlns="http://www.w3.org/2000/svg" width="76.83mm" height="26.66mm" viewBox="0 0 217.78 75.58"><defs><style>.a{fill:#f15a29;}.b{fill:#27aae1;}.c{fill:#d7df23;}.d{fill:#ffcf01;}.e{fill:#1b75bc;}</style></defs><title>ncver-logo</title><path d="M95.81,21.63,95,19.16H90.21l-.78,2.48H87.34L91.77,9.51H93.2l4.43,12.12Zm-3.26-9.38-2,5.34h3.78Z"/><path d="M104.54,21.63v-.91a3.14,3.14,0,0,1-2.35.91,2.75,2.75,0,0,1-2.08-.78,3.24,3.24,0,0,1-.91-2.48V12.9h1.69v5.34a1.72,1.72,0,0,0,1.69,2,1.81,1.81,0,0,0,1.82-2V12.9h1.69v8.6h-1.56Z"/><path d="M111.71,21.76a4.7,4.7,0,0,1-3.65-1.3l1.17-1.17a3.66,3.66,0,0,0,2.48.91c1,0,2-.39,2-1.17,0-.52-.26-.91-1.17-1l-1.43-.13c-1.56-.13-2.61-.91-2.61-2.35,0-1.69,1.43-2.61,3.26-2.61a5.33,5.33,0,0,1,3.26.91l-1,1.17a2.87,2.87,0,0,0-2.08-.65c-1,0-1.56.52-1.56,1.17s.26.91,1.17,1l1.3.13c1.56.13,2.61.91,2.61,2.48s-1.56,2.61-3.65,2.61"/><path d="M119.92,21.63a2.25,2.25,0,0,1-2.35-2.35V14.46h-1v-1.3h1V10.42h1.69V13H121v1.3h-1.69V19c0,.65.26,1,.91,1H121V21.5h-1Z"/><path d="M127.87,15a1.51,1.51,0,0,0-1.3-.52,1.8,1.8,0,0,0-1.69,2v5.21h-1.69V12.9h1.69v.91a2.69,2.69,0,0,1,2.35-1,3.2,3.2,0,0,1,2.08.78Z"/><path d="M135.16,21.63v-.78a2.79,2.79,0,0,1-2.35.91,3.19,3.19,0,0,1-2.35-.78,3.11,3.11,0,0,1-.65-1.82c0-1.43,1-2.48,3-2.48h2.35V16c0-1-.52-1.56-2-1.56a2.46,2.46,0,0,0-2,.78l-1.17-1a3.7,3.7,0,0,1,3.13-1.3c2.35,0,3.52,1,3.52,3v5.73Zm0-3.78h-2.08c-1,0-1.56.52-1.56,1.3s.52,1.17,1.56,1.17c.65,0,1.17,0,1.56-.52a1.73,1.73,0,0,0,.39-1.3v-.65Z"/><path d="M141.81,21.63a2.18,2.18,0,0,1-2.35-2.35V9.51h1.69v9.64c0,.65.26,1,.91,1h.78v1.43Z"/><path d="M144.81,9.38h1.82v1.82h-1.82Zm0,3.52h1.69v8.6h-1.69Z"/><path d="M153.93,21.63v-.78a2.79,2.79,0,0,1-2.35.91,3.19,3.19,0,0,1-2.35-.78,3.11,3.11,0,0,1-.65-1.82c0-1.43,1-2.48,3-2.48h2.35V16c0-1-.52-1.56-2-1.56a2.46,2.46,0,0,0-2,.78l-1.17-1A3.7,3.7,0,0,1,152,12.9c2.35,0,3.52,1,3.52,3v5.73Zm0-3.78h-2.08c-1,0-1.56.52-1.56,1.3s.52,1.17,1.56,1.17c.65,0,1.17,0,1.56-.52a1.73,1.73,0,0,0,.39-1.3v-.65Z"/><path d="M163.7,21.63V16.29a1.72,1.72,0,0,0-1.69-2,1.81,1.81,0,0,0-1.82,2v5.34h-1.69V12.9h1.69v.91a3.14,3.14,0,0,1,2.35-.91,2.75,2.75,0,0,1,2.08.78,3.24,3.24,0,0,1,.91,2.48v5.47Z"/><rect x="88.77" y="27.23" width="1.82" height="12.12"/><path d="M98.94,39.35V34.14a1.72,1.72,0,0,0-1.69-2,1.81,1.81,0,0,0-1.82,2v5.21H93.72v-8.6h1.69v.91a3.14,3.14,0,0,1,2.35-.91,2.75,2.75,0,0,1,2.08.78,3.24,3.24,0,0,1,.91,2.48v5.47H98.94Z"/><path d="M108.32,39.35v-.91a2.68,2.68,0,0,1-2.35,1,2.57,2.57,0,0,1-2.08-.78c-.91-.91-.91-2.35-.91-3.65a5.68,5.68,0,0,1,.91-3.65,2.75,2.75,0,0,1,2.08-.78,2.68,2.68,0,0,1,2.22.91V27.1h1.69V39.22h-1.56Zm-1.82-7.17c-1.56,0-1.82,1.3-1.82,2.87s.26,2.87,1.82,2.87,1.82-1.3,1.82-2.87-.26-2.87-1.82-2.87"/><path d="M118,39.35v-.91a3.14,3.14,0,0,1-2.35.91,2.75,2.75,0,0,1-2.08-.78,3.24,3.24,0,0,1-.91-2.48V30.62h1.69V36a1.72,1.72,0,0,0,1.69,2,1.81,1.81,0,0,0,1.82-2V30.62h1.69v8.6H118Z"/><path d="M125.26,39.48a4.7,4.7,0,0,1-3.65-1.3L122.78,37a3.65,3.65,0,0,0,2.48.91c1,0,2-.39,2-1.17,0-.52-.26-.91-1.17-1l-1.43-.13c-1.56-.13-2.61-.91-2.61-2.35,0-1.69,1.43-2.61,3.26-2.61a5.33,5.33,0,0,1,3.26.91l-1,1.17a2.87,2.87,0,0,0-2.08-.65c-1,0-1.56.52-1.56,1.17s.26.91,1.17,1l1.3.13c1.56.13,2.61.91,2.61,2.48s-1.56,2.61-3.65,2.61"/><path d="M133.34,39.35A2.25,2.25,0,0,1,131,37V32.19h-1v-1.3h1V28.28h1.69v2.61h1.69v1.3h-1.69v4.69c0,.65.26,1,.91,1h.78v1.43Z"/><path d="M141.42,32.71a1.51,1.51,0,0,0-1.3-.52,1.8,1.8,0,0,0-1.69,2v5.21h-1.69v-8.6h1.69v.91a2.69,2.69,0,0,1,2.35-1,3.19,3.19,0,0,1,2.08.78Z"/><path d="M146.89,41a2.06,2.06,0,0,1-.65,1,2.44,2.44,0,0,1-1.82.65h-.65V41.18h.39a1.17,1.17,0,0,0,1.3-.91L146,39l-3-8.21h1.82l2.08,6.12,2-6.12h1.82Z"/><path d="M160.83,39.35v-.78a2.79,2.79,0,0,1-2.35.91,3.19,3.19,0,0,1-2.35-.78,3.11,3.11,0,0,1-.65-1.82c0-1.43,1-2.48,3-2.48h2.35v-.65c0-1-.52-1.56-2-1.56a2.46,2.46,0,0,0-2,.78l-1.17-1a3.7,3.7,0,0,1,3.13-1.3c2.35,0,3.52,1,3.52,3v5.73Zm0-3.78h-2.08c-1,0-1.56.52-1.56,1.3s.52,1.17,1.56,1.17c.65,0,1.17,0,1.56-.52a1.73,1.73,0,0,0,.39-1.3v-.65Z"/><path d="M170.48,39.35V34.14a1.72,1.72,0,0,0-1.69-2,1.81,1.81,0,0,0-1.82,2v5.21h-1.69v-8.6H167v.91a3.14,3.14,0,0,1,2.35-.91,2.75,2.75,0,0,1,2.08.78A3.24,3.24,0,0,1,172.3,34v5.47h-1.82Z"/><path d="M179.86,39.35v-.91a2.68,2.68,0,0,1-2.35,1,2.57,2.57,0,0,1-2.08-.78c-.91-.91-.91-2.35-.91-3.65a5.68,5.68,0,0,1,.91-3.65,2.75,2.75,0,0,1,2.08-.78,2.68,2.68,0,0,1,2.22.91V27.1h1.69V39.22h-1.56ZM178,32.19c-1.56,0-1.82,1.3-1.82,2.87s.26,2.87,1.82,2.87,1.82-1.3,1.82-2.87-.26-2.87-1.82-2.87"/><path d="M92,57.21a5.51,5.51,0,0,1-4.3-1.56l1.17-1.17A3.94,3.94,0,0,0,92,55.64c1.56,0,2.48-.65,2.48-1.82a1.67,1.67,0,0,0-.52-1.3,2.45,2.45,0,0,0-1.3-.52l-1.43-.26a4.91,4.91,0,0,1-2.35-.91A2.79,2.79,0,0,1,88,48.47C88,46.39,89.56,45,92,45a4.91,4.91,0,0,1,3.78,1.43l-1.17,1.17A3.24,3.24,0,0,0,92,46.65c-1.43,0-2.22.78-2.22,2a1.59,1.59,0,0,0,.52,1.17,2,2,0,0,0,1.3.52l1.43.26a2.94,2.94,0,0,1,2.22.91,3.14,3.14,0,0,1,1,2.48c.13,1.82-1.69,3.26-4.3,3.26"/><polygon points="104.15 57.08 101.67 53.04 100.37 54.47 100.37 57.08 98.68 57.08 98.68 44.96 100.37 44.96 100.37 52.38 103.76 48.34 105.84 48.34 102.85 51.73 106.23 57.08 104.15 57.08"/><path d="M107.93,44.83h1.82v1.82h-1.82Zm.13,3.52h1.69v8.6h-1.69Z"/><path d="M114.84,57.08a2.18,2.18,0,0,1-2.35-2.35V45h1.69V54.6c0,.65.26,1,.91,1h.78v1.43Z"/><path d="M120.18,57.08a2.18,2.18,0,0,1-2.35-2.35V45h1.69V54.6c0,.65.26,1,.91,1h.78v1.43Z"/><path d="M125.91,57.21a4.7,4.7,0,0,1-3.65-1.3l1.17-1.17a3.66,3.66,0,0,0,2.48.91c1,0,2-.39,2-1.17,0-.52-.26-.91-1.17-1l-1.43-.13c-1.56-.13-2.61-.91-2.61-2.35,0-1.69,1.43-2.61,3.26-2.61a5.33,5.33,0,0,1,3.26.91l-1,1.17a2.87,2.87,0,0,0-2.08-.65c-1,0-1.56.52-1.56,1.17s.26.91,1.17,1l1.3.13c1.56.13,2.61.91,2.61,2.48s-1.56,2.61-3.65,2.61"/><path d="M139.85,57.21a4.87,4.87,0,0,1-3.26-1.3c-1.17-1.17-1.17-2.61-1.17-4.82s0-3.65,1.17-4.82a4.63,4.63,0,0,1,3.26-1.3,4.14,4.14,0,0,1,4.3,3.78h-1.82a2.52,2.52,0,0,0-2.48-2.08,2.37,2.37,0,0,0-1.82.78c-.65.65-.78,1.3-.78,3.78s.13,3.13.78,3.78a2.19,2.19,0,0,0,1.82.78,2.52,2.52,0,0,0,2.48-2.08h1.82a4.12,4.12,0,0,1-4.3,3.52"/><path d="M152.23,56.16a3.71,3.71,0,0,1-2.61,1,3.43,3.43,0,0,1-2.61-1,4.81,4.81,0,0,1-1-3.39,4.61,4.61,0,0,1,1-3.39,3.71,3.71,0,0,1,2.61-1,3.23,3.23,0,0,1,2.61,1,4.81,4.81,0,0,1,1,3.39,4.27,4.27,0,0,1-1,3.39m-1.3-5.86a2,2,0,0,0-1.3-.52,1.67,1.67,0,0,0-1.3.52,3.35,3.35,0,0,0-.65,2.35,3.35,3.35,0,0,0,.65,2.35,1.51,1.51,0,0,0,1.3.52,1.67,1.67,0,0,0,1.3-.52,3.35,3.35,0,0,0,.65-2.35,3.35,3.35,0,0,0-.65-2.35"/><path d="M166.18,57.08V51.73a1.72,1.72,0,0,0-1.69-2,1.78,1.78,0,0,0-1.82,1.82v5.34H161V51.6a1.72,1.72,0,0,0-1.69-2,1.81,1.81,0,0,0-1.82,2v5.34h-1.69v-8.6h1.69v.91a3,3,0,0,1,2.35-.91,2.68,2.68,0,0,1,2.48,1.3,3.12,3.12,0,0,1,2.74-1.3,3.07,3.07,0,0,1,2.22.78,3.24,3.24,0,0,1,.91,2.48v5.47Z"/><path d="M181.16,57.08V51.73a1.72,1.72,0,0,0-1.69-2,1.78,1.78,0,0,0-1.82,1.82v5.34H176V51.6a1.72,1.72,0,0,0-1.69-2,1.81,1.81,0,0,0-1.82,2v5.34h-1.69v-8.6h1.69v.91a3,3,0,0,1,2.35-.91,2.68,2.68,0,0,1,2.48,1.3,3.12,3.12,0,0,1,2.74-1.3,3.07,3.07,0,0,1,2.22.78,3.24,3.24,0,0,1,.91,2.48v5.47Z"/><path d="M185.46,44.83h1.82v1.82h-1.82Zm.13,3.52h1.69v8.6h-1.69Z"/><path d="M192.63,57.08a2.25,2.25,0,0,1-2.35-2.35V49.91h-1V48.6h1V46H192V48.6h1.69v1.3H192V54.6c0,.65.26,1,.91,1h.78v1.43Z"/><path d="M198.49,57.08a2.25,2.25,0,0,1-2.35-2.35V49.91h-1V48.6h1V46h1.69V48.6h1.69v1.3h-1.69V54.6c0,.65.26,1,.91,1h.78v1.43Z"/><path d="M202.92,53.17a2.2,2.2,0,0,0,2.22,2.48,2.59,2.59,0,0,0,2.08-.91l1.17,1a4,4,0,0,1-3.26,1.3c-2.22,0-3.91-1.17-3.91-4.43,0-2.74,1.43-4.43,3.65-4.43s3.65,1.69,3.65,4.17v.78Zm3.78-2.35a1.9,1.9,0,0,0-3.39,0,3.11,3.11,0,0,0-.26,1.17H207c-.13-.52-.13-.78-.26-1.17"/><path d="M212.18,53.17a2.2,2.2,0,0,0,2.22,2.48,2.59,2.59,0,0,0,2.08-.91l1.17,1a4,4,0,0,1-3.26,1.3c-2.22,0-3.91-1.17-3.91-4.43,0-2.74,1.43-4.43,3.65-4.43s3.65,1.69,3.65,4.17v.78Zm3.65-2.35a1.9,1.9,0,0,0-3.39,0,3.11,3.11,0,0,0-.26,1.17h3.91a3.11,3.11,0,0,0-.26-1.17"/><path d="M42,19.94l23.33,5.34v-.13L55.55,7.56ZM22.58,17.59l8.34,9.64,6.78-6.12ZM32.35,28.8l5.86,6.65L63.75,27,40.17,21.63Zm-1.56,1.3L17.36,42.35,36.13,36.1Zm-24.37-3,7,16,16-14.59-9.9-11.21Zm33.23,10L55.94,55.77l12.25-12L65.71,28.54ZM55.81,58.77l-18.24-21-25,8.34L3.94,26.45,19.58,14.72l20.07,4.56L56.2,4.43,67.27,24.5l.26,1.3,3.91.91-3.52,1.17,2.61,16.68Z"/><path class="a" d="M7.85,46a5.49,5.49,0,0,1,4-6.52A5.42,5.42,0,1,1,14.37,50a5.24,5.24,0,0,1-6.52-4"/><path class="b" d="M.16,28.15a6.15,6.15,0,0,1,4.69-7.43A6.21,6.21,0,1,1,.16,28.15"/><path class="a" d="M49.94,6a6,6,0,0,1,12,0,6.06,6.06,0,0,1-6,6,6,6,0,0,1-6-6"/><path class="c" d="M58.8,24.76a7.3,7.3,0,1,1,7.3,7.3,7.29,7.29,0,0,1-7.3-7.3"/><path class="b" d="M62.84,44a6.52,6.52,0,1,1,13,0,6.52,6.52,0,0,1-13,0"/><path class="d" d="M50.46,57.21a5.47,5.47,0,1,1,5.47,5.47,5.34,5.34,0,0,1-5.47-5.47"/><path class="d" d="M13.85,14.46A6.08,6.08,0,1,1,21.14,19a6.1,6.1,0,0,1-7.3-4.56"/><path class="e" d="M56.72,71a4.56,4.56,0,1,1,4.56,4.56A4.62,4.62,0,0,1,56.72,71"/></svg>